<?xml version="1.0" encoding="UTF-8"?>
<svg version="1.1" xmlns="http://www.w3.org/2000/svg" width="500" height="482">
<path d="M0 0 C1.15624026 -0.00339833 1.15624026 -0.00339833 2.33583891 -0.00686532 C4.92675805 -0.0132111 7.51762496 -0.01237559 10.10855103 -0.0115509 C11.96292692 -0.01454204 13.81730219 -0.01794446 15.67167664 -0.02172852 C20.71506562 -0.03057746 25.75843764 -0.03290701 30.80183363 -0.0335443 C35.00917542 -0.03449281 39.21651325 -0.03817046 43.42385352 -0.0417164 C53.3488654 -0.04986439 63.27386821 -0.05230032 73.19888306 -0.05158997 C83.44341963 -0.0509891 93.68790356 -0.06154186 103.93242681 -0.07733363 C112.72230413 -0.09040119 121.51216423 -0.09577419 130.30205119 -0.09513456 C135.55429535 -0.09487933 140.80649275 -0.09774386 146.05872726 -0.10831261 C150.99824101 -0.11798037 155.93766316 -0.11808185 160.8771801 -0.11079597 C162.69082332 -0.10974848 164.50447221 -0.11212276 166.3181057 -0.11815643 C168.7926638 -0.12585609 171.26690398 -0.12124504 173.74145508 -0.11352539 C174.46023374 -0.11866895 175.1790124 -0.12381252 175.91957223 -0.12911195 C179.90097264 -0.10163924 182.91020192 0.40120929 186.49771118 2.13371277 C187.21958618 2.42246277 187.94146118 2.71121277 188.68521118 3.00871277 C190.96636326 4.42460027 191.42499221 5.70221643 192.49771118 8.13371277 C193.4850286 9.47646446 194.48365861 10.8110355 195.49771118 12.13371277 C197.85384758 16.84598557 197.2310482 23.70192161 195.74380493 28.63371277 C193.87988748 32.61006999 192.56314408 34.33789184 188.49771118 36.13371277 C187.32689466 36.81412149 186.16006335 37.50144317 184.99771118 38.19621277 C182.5254315 39.62641327 180.3524159 40.67696001 177.49771118 41.13371277 C177.82771118 41.79371277 178.15771118 42.45371277 178.49771118 43.13371277 C173.54771118 43.13371277 168.59771118 43.13371277 163.49771118 43.13371277 C163.51556924 53.49734218 163.55481122 63.86032201 163.62980175 74.22369862 C163.6638231 79.03792129 163.6891425 83.851835 163.69326782 88.66618347 C163.69760485 93.32846653 163.72650536 97.99005559 163.77114296 102.65212059 C163.78394788 104.41429764 163.78848749 106.1765585 163.78386497 107.93877602 C163.74666101 126.46074689 167.14729445 142.56621259 177.49771118 158.13371277 C177.95853088 158.83629211 178.41935059 159.53887146 178.89413452 160.26274109 C182.15777102 165.22538639 185.48516772 170.14275762 188.83462524 175.04777527 C192.07158364 179.78962039 195.29046371 184.54370522 198.50942993 189.29777527 C199.1736496 190.27828857 199.83786926 191.25880188 200.5222168 192.26902771 C207.43959216 202.49679309 214.22399782 212.81049006 220.99771118 223.13371277 C230.56300425 237.70356563 240.22674084 252.20099985 249.99771118 266.63371277 C260.37979452 281.96910149 270.62826127 297.3859522 280.79208374 312.86677551 C291.2972074 328.86216426 301.95272574 344.75175427 312.69497681 360.58879089 C315.44754856 364.648115 318.18832845 368.71515289 320.92019653 372.78843689 C321.984386 374.37055715 323.05310019 375.94964205 324.12600708 377.52586365 C325.68653473 379.8208302 327.23045462 382.12618167 328.77114868 384.43449402 C329.2360672 385.11054184 329.70098572 385.78658966 330.17999268 386.48312378 C332.97693022 390.71934578 334.06586168 393.97340437 334.49771118 399.13371277 C334.84189087 400.21523621 335.18607056 401.29675964 335.54067993 402.41105652 C336.78008025 407.23207082 336.8379737 411.73868113 336.81021118 416.69621277 C336.80819702 417.6655072 336.80618286 418.63480164 336.80410767 419.63346863 C336.69507127 427.48996568 335.55849322 434.54191985 333.49771118 442.13371277 C333.36622681 442.96644714 333.23474243 443.79918152 333.09927368 444.65715027 C331.64850084 450.62981248 327.54584725 456.58623218 322.68521118 460.25871277 C321.63333618 460.87746277 320.58146118 461.49621277 319.49771118 462.13371277 C317.8956208 463.57141474 316.31437213 465.0324831 314.74771118 466.50871277 C300.76235012 479.16608702 285.11082015 482.91494136 266.74804688 482.76190186 C265.12316122 482.76696075 263.49828117 482.77419985 261.87341368 482.7834 C257.45558142 482.80215815 253.03831012 482.79018261 248.62049294 482.77267706 C243.83788389 482.75921754 239.05535234 482.77477062 234.27275085 482.78649902 C224.92285336 482.80481547 215.57316575 482.79640386 206.22327493 482.7784108 C198.6212636 482.76434965 191.01930901 482.76049954 183.41728592 482.76385307 C181.79052541 482.76456924 181.79052541 482.76456924 180.13090105 482.76529987 C177.92734482 482.76632626 175.7237886 482.76738162 173.52023239 482.76846563 C154.06411578 482.77702036 134.60810011 482.76039671 115.15200806 482.7306366 C96.29551963 482.70179426 77.43917656 482.69472105 58.58267212 482.71012878 C38.01981776 482.72690791 17.4570323 482.7309083 -3.10582387 482.71341842 C-5.30038094 482.71157414 -7.49493801 482.70973941 -9.68949509 482.70791435 C-10.76910065 482.70700226 -11.84870621 482.70609017 -12.96102709 482.70515044 C-20.55040144 482.69955631 -28.13974202 482.70284166 -35.72911453 482.7094593 C-44.98286974 482.71720836 -54.23648213 482.71038309 -63.49020864 482.68528426 C-68.20694609 482.67282664 -72.92346161 482.66659723 -77.64020729 482.67782593 C-81.96552137 482.68792804 -86.29039454 482.67928276 -90.61565535 482.65624475 C-92.17260902 482.651121 -93.72960279 482.65258237 -95.28653856 482.6616394 C-114.97163341 482.7665445 -129.51160829 476.77090762 -144.50228882 464.13371277 C-145.79779663 463.09924011 -145.79779663 463.09924011 -147.11947632 462.04386902 C-154.1294163 456.42442533 -154.1294163 456.42442533 -155.31478882 452.32121277 C-155.40760132 451.23840027 -155.40760132 451.23840027 -155.50228882 450.13371277 C-156.49228882 449.80371277 -157.48228882 449.47371277 -158.50228882 449.13371277 C-164.62468406 440.05567845 -163.68275461 428.0451501 -163.68978882 417.57121277 C-163.70815796 416.12585144 -163.70815796 416.12585144 -163.72689819 414.65129089 C-163.73986135 408.24316901 -163.06107104 402.34940894 -161.50228882 396.13371277 C-161.25349976 395.12953308 -161.00471069 394.12535339 -160.74838257 393.09074402 C-158.87817124 388.65265632 -156.25114263 384.80442704 -153.56478882 380.82121277 C-153.02660522 379.99814636 -152.48842163 379.17507996 -151.93392944 378.32707214 C-151.4112146 377.54525574 -150.88849976 376.76343933 -150.34994507 375.95793152 C-149.87565063 375.24725525 -149.4013562 374.53657898 -148.91268921 373.80436707 C-147.50228882 372.13371277 -147.50228882 372.13371277 -144.50228882 371.13371277 C-143.78500647 369.1513025 -143.12533002 367.14772968 -142.50228882 365.13371277 C-141.52159255 363.38966373 -140.47652926 361.68058079 -139.37728882 360.00871277 C-138.75209351 359.05222839 -138.12689819 358.09574402 -137.48275757 357.11027527 C-136.82920288 356.12800964 -136.17564819 355.14574402 -135.50228882 354.13371277 C-134.87967163 353.19269714 -134.25705444 352.25168152 -133.61557007 351.28215027 C-131.96253959 348.79422204 -130.30179815 346.31164228 -128.6388092 343.83036804 C-123.27866104 335.82846702 -117.94457336 327.80944203 -112.63761902 319.77217102 C-110.36312229 316.32906818 -108.08395622 312.88906881 -105.80429077 309.4493866 C-104.63009222 307.67531679 -103.45793912 305.8998917 -102.28768921 304.12321472 C-100.57422886 301.52285348 -98.85348013 298.92745355 -97.13119507 296.33293152 C-96.34839928 295.13938301 -96.34839928 295.13938301 -95.54978943 293.92172241 C-95.06175339 293.18947952 -94.57371735 292.45723663 -94.07089233 291.70280457 C-93.43329735 290.73808479 -93.43329735 290.73808479 -92.78282166 289.75387573 C-91.50228882 288.13371277 -91.50228882 288.13371277 -88.50228882 286.13371277 C-87.81188307 284.47673898 -87.14922532 282.80813666 -86.50228882 281.13371277 C-82.94673326 275.35593499 -82.94673326 275.35593499 -80.50228882 274.13371277 C-80.00728882 272.89621277 -80.00728882 272.89621277 -79.50228882 271.63371277 C-78.50228882 269.13371277 -78.50228882 269.13371277 -76.50228882 268.13371277 C-76.23416382 267.43246277 -75.96603882 266.73121277 -75.68978882 266.00871277 C-74.17848942 262.34977738 -72.15667416 259.0858657 -69.50228882 256.13371277 C-68.84228882 256.13371277 -68.18228882 256.13371277 -67.50228882 256.13371277 C-67.2294104 255.23870056 -66.95653198 254.34368835 -66.67538452 253.42155457 C-65.60442122 250.4199598 -64.46809446 248.17808649 -62.73275757 245.52824402 C-62.10804565 244.57256531 -61.48333374 243.6168866 -60.83969116 242.63224792 C-60.06198952 241.46511377 -59.28270335 240.29903468 -58.50228882 239.13371277 C-58.03389587 238.43324829 -57.56550293 237.73278381 -57.08291626 237.01109314 C-53.01288407 230.93470932 -48.91487612 224.87733878 -44.81478882 218.82121277 C-33.96510691 202.79602256 -33.96510691 202.79602256 -23.25619507 186.67668152 C-22.78863297 185.96753098 -22.32107086 185.25838043 -21.83934021 184.52774048 C-19.68522769 181.26019514 -17.53875374 177.98814151 -15.40585327 174.70671082 C-14.65450931 173.56495034 -13.90282312 172.42341497 -13.15072632 171.28215027 C-12.51312378 170.30423523 -11.87552124 169.32632019 -11.21859741 168.31877136 C-9.50228882 166.13371277 -9.50228882 166.13371277 -6.50228882 165.13371277 C-6.34760132 163.98902527 -6.34760132 163.98902527 -6.18978882 162.82121277 C-5.4400169 159.89028619 -4.66755615 159.11854115 -2.50228882 157.13371277 C-2.17228882 156.14371277 -1.84228882 155.15371277 -1.50228882 154.13371277 C-0.50094522 152.06168045 0.52221152 150.00012699 1.56021118 147.94621277 C2.10806274 146.85953308 2.65591431 145.77285339 3.22036743 144.65324402 C3.64189087 143.82179871 4.06341431 142.99035339 4.49771118 142.13371277 C5.15771118 142.13371277 5.81771118 142.13371277 6.49771118 142.13371277 C6.49771118 140.15371277 6.49771118 138.17371277 6.49771118 136.13371277 C7.15771118 136.13371277 7.81771118 136.13371277 8.49771118 136.13371277 C8.49771118 133.49371277 8.49771118 130.85371277 8.49771118 128.13371277 C9.15771118 128.13371277 9.81771118 128.13371277 10.49771118 128.13371277 C10.49771118 100.08371277 10.49771118 72.03371277 10.49771118 43.13371277 C5.54771118 43.13371277 0.59771118 43.13371277 -4.50228882 43.13371277 C-4.50228882 42.47371277 -4.50228882 41.81371277 -4.50228882 41.13371277 C-5.69853882 40.74183777 -6.89478882 40.34996277 -8.12728882 39.94621277 C-14.24310039 37.64467944 -19.00037866 33.69336928 -22.50228882 28.13371277 C-22.94062898 25.07271113 -22.74541101 22.14497185 -22.50228882 19.07121277 C-22.47006226 18.26877136 -22.43783569 17.46632996 -22.40463257 16.63957214 C-22.16305864 12.90756466 -21.98254901 10.75774512 -19.66244507 7.74308777 C-18.94959351 7.21199402 -18.23674194 6.68090027 -17.50228882 6.13371277 C-16.90287476 5.65547058 -16.30346069 5.17722839 -15.68588257 4.68449402 C-15.10967163 4.27586121 -14.53346069 3.86722839 -13.93978882 3.44621277 C-13.36099976 3.02984558 -12.78221069 2.61347839 -12.18588257 2.18449402 C-8.29248925 -0.24548928 -4.41548481 -0.00945444 0 0 Z M193.49771118 12.13371277 C194.49771118 14.13371277 194.49771118 14.13371277 194.49771118 14.13371277 Z M194.49771118 15.13371277 C194.49771118 18.76371277 194.49771118 22.39371277 194.49771118 26.13371277 C194.82771118 26.13371277 195.15771118 26.13371277 195.49771118 26.13371277 C195.49771118 22.50371277 195.49771118 18.87371277 195.49771118 15.13371277 C195.16771118 15.13371277 194.83771118 15.13371277 194.49771118 15.13371277 Z M-21.50228882 24.13371277 C-20.50228882 27.13371277 -20.50228882 27.13371277 -20.50228882 27.13371277 Z M193.49771118 26.13371277 C194.49771118 28.13371277 194.49771118 28.13371277 194.49771118 28.13371277 Z M53.49771118 41.13371277 C53.49771118 41.46371277 53.49771118 41.79371277 53.49771118 42.13371277 C75.27771118 42.13371277 97.05771118 42.13371277 119.49771118 42.13371277 C119.49771118 41.80371277 119.49771118 41.47371277 119.49771118 41.13371277 C97.71771118 41.13371277 75.93771118 41.13371277 53.49771118 41.13371277 Z M11.49771118 43.13371277 C11.49771118 68.87371277 11.49771118 94.61371277 11.49771118 121.13371277 C11.82771118 121.13371277 12.15771118 121.13371277 12.49771118 121.13371277 C12.49771118 95.39371277 12.49771118 69.65371277 12.49771118 43.13371277 C12.16771118 43.13371277 11.83771118 43.13371277 11.49771118 43.13371277 Z M53.49771118 43.13371277 C53.43712524 49.21422058 53.37653931 55.29472839 53.31411743 61.55949402 C53.27358722 65.42864111 53.23279573 69.29778196 53.19107056 73.16691589 C53.1249752 79.29815942 53.05980843 85.42940231 53.00039673 91.56071472 C52.95239737 96.50799299 52.9000458 101.45520837 52.84477043 106.40241051 C52.82450677 108.28286851 52.80576914 110.16334364 52.78863716 112.04383278 C52.70195388 121.45345363 52.58737619 130.77506489 51.49771118 140.13371277 C51.43833878 140.8247963 51.37896637 141.51587982 51.3177948 142.22790527 C50.92168584 146.09756604 50.16520193 147.46622203 47.49771118 150.13371277 C46.36645999 153.4544824 45.65859129 156.87972943 45.21255493 160.35636902 C44.15616574 164.46070079 42.18136342 167.975385 40.18521118 171.69621277 C39.59836548 172.82833191 39.59836548 172.82833191 38.99966431 173.98332214 C36.89698527 177.94110109 34.92636904 181.15580519 31.49771118 184.13371277 C29.74170919 185.82467765 28.59047239 186.94819035 27.49771118 189.13371277 C27.18833618 189.73183777 26.87896118 190.32996277 26.56021118 190.94621277 C25.42394862 193.17773046 25.42394862 193.17773046 24.56021118 195.82121277 C24.20958618 196.58433777 23.85896118 197.34746277 23.49771118 198.13371277 C22.50771118 198.46371277 21.51771118 198.79371277 20.49771118 199.13371277 C20.16771118 200.78371277 19.83771118 202.43371277 19.49771118 204.13371277 C18.50771118 204.46371277 17.51771118 204.79371277 16.49771118 205.13371277 C16.16771118 206.78371277 15.83771118 208.43371277 15.49771118 210.13371277 C14.50771118 210.46371277 13.51771118 210.79371277 12.49771118 211.13371277 C12.16771118 212.78371277 11.83771118 214.43371277 11.49771118 216.13371277 C10.50771118 216.46371277 9.51771118 216.79371277 8.49771118 217.13371277 C8.16771118 217.79371277 7.83771118 218.45371277 7.49771118 219.13371277 C7.02333618 219.91746277 6.54896118 220.70121277 6.06021118 221.50871277 C4.51284466 224.0240211 4.51284466 224.0240211 3.43521118 226.32121277 C2.49771118 228.13371277 2.49771118 228.13371277 0.49771118 230.13371277 C0.16771118 230.79371277 -0.16228882 231.45371277 -0.50228882 232.13371277 C-1.50228882 234.13371277 -1.50228882 234.13371277 -3.50228882 236.13371277 C-4.17143048 237.7993873 -4.83767621 239.46622594 -5.50228882 241.13371277 C-6.6036159 243.07629451 -7.75168088 244.99296036 -8.93978882 246.88371277 C-9.53662476 247.84793152 -10.13346069 248.81215027 -10.74838257 249.80558777 C-12.50228882 252.13371277 -12.50228882 252.13371277 -15.50228882 253.13371277 C-15.58478882 253.83496277 -15.66728882 254.53621277 -15.75228882 255.25871277 C-16.6870902 258.84211806 -18.24631497 261.2142172 -20.50228882 264.13371277 C-21.49228882 264.46371277 -22.48228882 264.79371277 -23.50228882 265.13371277 C-23.83228882 265.79371277 -24.16228882 266.45371277 -24.50228882 267.13371277 C-24.97666382 267.91746277 -25.45103882 268.70121277 -25.93978882 269.50871277 C-27.48715534 272.0240211 -27.48715534 272.0240211 -28.56478882 274.32121277 C-29.50228882 276.13371277 -29.50228882 276.13371277 -31.50228882 278.13371277 C-32.16984666 279.80002269 -32.83637095 281.46674678 -33.50228882 283.13371277 C-35.84269556 287.13828637 -38.40637934 290.99899268 -40.93978882 294.88371277 C-41.62105835 295.94976746 -42.30232788 297.01582214 -43.00424194 298.11418152 C-43.99134155 299.63205261 -43.99134155 299.63205261 -44.99838257 301.18058777 C-45.89834961 302.57035828 -45.89834961 302.57035828 -46.8164978 303.98820496 C-48.50228882 306.13371277 -48.50228882 306.13371277 -51.50228882 307.13371277 C-51.60541382 307.87621277 -51.70853882 308.61871277 -51.81478882 309.38371277 C-52.50228882 312.13371277 -52.50228882 312.13371277 -54.04916382 313.79777527 C-56.17087882 317.20848917 -55.74027415 320.40002593 -55.43978882 324.25871277 C-55.38814575 325.01700378 -55.33650269 325.7752948 -55.28329468 326.55656433 C-54.76478004 332.63856579 -53.22506207 337.66761703 -50.50228882 343.13371277 C-50.02469116 344.39441589 -50.02469116 344.39441589 -49.53744507 345.68058777 C-46.71238186 352.37545454 -41.0062231 357.14955469 -34.50228882 360.13371277 C-14.74347348 367.01475475 6.5473682 361.65665857 24.88296509 353.00871277 C39.08125053 346.11263951 52.33788258 337.81667238 65.49771118 329.13371277 C66.24907349 328.6388739 67.00043579 328.14403503 67.77456665 327.63420105 C72.96321321 324.20967048 78.12083984 320.7406117 83.27114868 317.25871277 C84.06778931 316.72246277 84.86442993 316.18621277 85.68521118 315.63371277 C86.33876587 315.19027527 86.99232056 314.74683777 87.66567993 314.28996277 C89.49771118 313.13371277 89.49771118 313.13371277 91.38516235 312.20475769 C93.39513772 311.18571667 95.24298706 310.0694141 97.13052368 308.84074402 C125.68768728 290.43212778 154.89252523 272.81474767 188.51333618 265.73918152 C189.16817993 265.53937683 189.82302368 265.33957214 190.49771118 265.13371277 C191.81831569 262.49250375 191.18666996 260.91565273 190.33627319 258.1789093 C188.68138565 254.14274952 186.13552746 250.66973941 183.66177368 247.09855652 C183.0743338 246.23433578 182.48689392 245.37011505 181.88165283 244.47970581 C180.62241247 242.62949065 179.35892406 240.78216079 178.09158325 238.93748474 C176.11103902 236.05422051 174.14215192 233.16332422 172.17642212 230.26994324 C169.53973466 226.39061458 166.89922262 222.51394783 164.25454712 218.64006042 C159.49351101 211.6645079 154.74503837 204.68080352 150.03549194 197.67036438 C148.77246143 195.79545337 147.4998411 193.92731421 146.22671509 192.05924988 C145.46753746 190.93079572 144.70887703 189.80199337 143.95083618 188.67277527 C143.30276001 187.7158075 142.65468384 186.75883972 141.98696899 185.77287292 C140.50086939 183.13930953 139.99479943 181.08509478 139.49771118 178.13371277 C138.03979258 176.33985284 138.03979258 176.33985284 136.49771118 175.13371277 C136.16771118 175.46371277 135.83771118 175.79371277 135.49771118 176.13371277 C134.20277923 173.7395944 132.91168946 171.34353397 131.62271118 168.94621277 C131.07550415 167.93591003 131.07550415 167.93591003 130.51724243 166.90519714 C127.1441741 160.61902435 125.2771513 155.60550273 124.84146118 148.43840027 C124.62448771 145.86250041 124.62448771 145.86250041 122.49771118 143.13371277 C122.16771118 143.13371277 121.83771118 143.13371277 121.49771118 143.13371277 C121.51511353 142.20752136 121.51511353 142.20752136 121.53286743 141.26261902 C121.54189087 140.41570496 121.55091431 139.56879089 121.56021118 138.69621277 C121.57761353 137.46064636 121.57761353 137.46064636 121.59536743 136.20011902 C121.51688445 133.73575345 121.30744123 131.41087143 121.00444031 128.97064209 C120.50052892 124.52715731 120.32786278 120.14530615 120.29238892 115.67643738 C120.28248932 114.88508392 120.27258972 114.09373047 120.26239014 113.27839661 C120.23114163 110.6976456 120.2061649 108.11687627 120.18130493 105.53605652 C120.16070363 103.73287514 120.13970639 101.92969825 120.11833191 100.12652588 C120.06343897 95.40679075 120.01388673 90.68701443 119.96548462 85.96720886 C119.90613957 80.29018453 119.84009399 74.61323459 119.77518463 68.93627167 C119.67758824 60.33546457 119.58845014 51.73460725 119.49771118 43.13371277 C97.71771118 43.13371277 75.93771118 43.13371277 53.49771118 43.13371277 Z M161.49771118 43.13371277 C161.49771118 70.19371277 161.49771118 97.25371277 161.49771118 125.13371277 C161.82771118 125.13371277 162.15771118 125.13371277 162.49771118 125.13371277 C162.49771118 98.07371277 162.49771118 71.01371277 162.49771118 43.13371277 C162.16771118 43.13371277 161.83771118 43.13371277 161.49771118 43.13371277 Z M162.49771118 125.13371277 C162.49771118 126.78371277 162.49771118 128.43371277 162.49771118 130.13371277 C162.82771118 130.13371277 163.15771118 130.13371277 163.49771118 130.13371277 C163.49771118 128.48371277 163.49771118 126.83371277 163.49771118 125.13371277 C163.16771118 125.13371277 162.83771118 125.13371277 162.49771118 125.13371277 Z M163.49771118 131.13371277 C164.49771118 135.13371277 164.49771118 135.13371277 164.49771118 135.13371277 Z M121.49771118 138.13371277 C122.49771118 142.13371277 122.49771118 142.13371277 122.49771118 142.13371277 Z M50.49771118 140.13371277 C51.49771118 143.13371277 51.49771118 143.13371277 51.49771118 143.13371277 Z M166.49771118 141.13371277 C167.49771118 143.13371277 167.49771118 143.13371277 167.49771118 143.13371277 Z M49.49771118 144.13371277 C50.49771118 147.13371277 50.49771118 147.13371277 50.49771118 147.13371277 Z M167.49771118 144.13371277 C168.49771118 146.13371277 168.49771118 146.13371277 168.49771118 146.13371277 Z M4.49771118 145.13371277 C5.49771118 147.13371277 5.49771118 147.13371277 5.49771118 147.13371277 Z M170.49771118 150.13371277 C171.49771118 152.13371277 171.49771118 152.13371277 171.49771118 152.13371277 Z M125.49771118 153.13371277 C126.49771118 155.13371277 126.49771118 155.13371277 126.49771118 155.13371277 Z M126.49771118 156.13371277 C127.49771118 158.13371277 127.49771118 158.13371277 127.49771118 158.13371277 Z M127.49771118 158.13371277 C128.49771118 160.13371277 128.49771118 160.13371277 128.49771118 160.13371277 Z M42.49771118 163.13371277 C43.49771118 165.13371277 43.49771118 165.13371277 43.49771118 165.13371277 Z M40.49771118 167.13371277 C41.49771118 169.13371277 41.49771118 169.13371277 41.49771118 169.13371277 Z M-71.50228882 260.13371277 C-70.50228882 262.13371277 -70.50228882 262.13371277 -70.50228882 262.13371277 Z M-56.50228882 318.13371277 C-56.50228882 322.42371277 -56.50228882 326.71371277 -56.50228882 331.13371277 C-56.17228882 331.13371277 -55.84228882 331.13371277 -55.50228882 331.13371277 C-55.50228882 326.84371277 -55.50228882 322.55371277 -55.50228882 318.13371277 C-55.83228882 318.13371277 -56.16228882 318.13371277 -56.50228882 318.13371277 Z M-55.50228882 333.13371277 C-54.50228882 336.13371277 -54.50228882 336.13371277 -54.50228882 336.13371277 Z M-54.50228882 337.13371277 C-53.50228882 339.13371277 -53.50228882 339.13371277 -53.50228882 339.13371277 Z M-161.50228882 438.13371277 C-160.50228882 440.13371277 -160.50228882 440.13371277 -160.50228882 440.13371277 Z M-159.50228882 443.13371277 C-158.50228882 445.13371277 -158.50228882 445.13371277 -158.50228882 445.13371277 Z " fill="#000000" transform="translate(163.50228881835938,-0.1337127685546875)"/>
<path d="M0 0 C0 0.33 0 0.66 0 1 C-6.37358711 1.96205088 -12.55929529 2.10655578 -19 2 C-19 1.67 -19 1.34 -19 1 C-12.62694402 0.25492456 -6.41688675 -0.10349817 0 0 Z " fill="#000000" transform="translate(160,360)"/>
<path d="M0 0 C1.37432457 3.81756824 0.67975039 7.07255329 0 11 C-0.33 11 -0.66 11 -1 11 C-1.125 3.375 -1.125 3.375 0 0 Z " fill="#000000" transform="translate(141,13)"/>
<path d="M0 0 C0.33 0 0.66 0 1 0 C1 2.64 1 5.28 1 8 C0.67 8 0.34 8 0 8 C0 5.36 0 2.72 0 0 Z " fill="#000000" transform="translate(282,125)"/>
<path d="M0 0 C0.33 0 0.66 0 1 0 C1 2.31 1 4.62 1 7 C0.67 7 0.34 7 0 7 C0 4.69 0 2.38 0 0 Z " fill="#000000" transform="translate(173,121)"/>
<path d="M0 0 C1.98 0 3.96 0 6 0 C6 0.33 6 0.66 6 1 C4.02 1 2.04 1 0 1 C0 0.67 0 0.34 0 0 Z " fill="#000000" transform="translate(135,360)"/>
<path d="M0 0 C0.33 0 0.66 0 1 0 C1 1.98 1 3.96 1 6 C0.67 6 0.34 6 0 6 C0 4.02 0 2.04 0 0 Z " fill="#000000" transform="translate(217,129)"/>
<path d="M0 0 C1.65 0 3.3 0 5 0 C5 0.33 5 0.66 5 1 C3.35 1 1.7 1 0 1 C0 0.67 0 0.34 0 0 Z " fill="#000000" transform="translate(160,359)"/>
<path d="M0 0 C1.65 0 3.3 0 5 0 C5 0.33 5 0.66 5 1 C3.35 1 1.7 1 0 1 C0 0.67 0 0.34 0 0 Z " fill="#000000" transform="translate(165,358)"/>
<path d="M0 0 C0.33 0 0.66 0 1 0 C1 1.65 1 3.3 1 5 C0.67 5 0.34 5 0 5 C0 3.35 0 1.7 0 0 Z " fill="#000000" transform="translate(216,135)"/>
<path d="M0 0 C0.33 0 0.66 0 1 0 C1 1.65 1 3.3 1 5 C0.67 5 0.34 5 0 5 C0 3.35 0 1.7 0 0 Z " fill="#000000" transform="translate(283,133)"/>
<path d="M0 0 C4 1 4 1 4 1 Z " fill="#000000" transform="translate(451,481)"/>
<path d="M0 0 C0.66 0.33 1.32 0.66 2 1 C1.01 1 0.02 1 -1 1 C-0.67 0.67 -0.34 0.34 0 0 Z " fill="#000000" transform="translate(475,469)"/>
<path d="M0 0 C0.99 0.33 1.98 0.66 3 1 C2.01 1 1.02 1 0 1 C0 0.67 0 0.34 0 0 Z " fill="#000000" transform="translate(22,468)"/>
<path d="M0 0 C1 4 1 4 1 4 Z " fill="#000000" transform="translate(499,433)"/>
<path d="M0 0 C4 1 4 1 4 1 Z " fill="#000000" transform="translate(342,265)"/>
<path d="M0 0 C4 1 4 1 4 1 Z " fill="#000000" transform="translate(346,264)"/>
<path d="M0 0 C4 1 4 1 4 1 Z " fill="#000000" transform="translate(350,263)"/>
<path d="M0 0 C0 3 0 3 0 3 Z " fill="#000000" transform="translate(171,220)"/>
<path d="M0 0 C0 3 0 3 0 3 Z " fill="#000000" transform="translate(191,190)"/>
<path d="M0 0 C0.99 0.495 0.99 0.495 2 1 C1.67 1.66 1.34 2.32 1 3 C0.67 2.01 0.34 1.02 0 0 Z " fill="#000000" transform="translate(300,177)"/>
<path d="M0 0 C1 4 1 4 1 4 Z " fill="#000000" transform="translate(286,146)"/>
<path d="M0 0 C4 1 4 1 4 1 Z " fill="#000000" transform="translate(155,41)"/>
<path d="M0 0 C3 1 3 1 3 1 Z " fill="#000000" transform="translate(46,481)"/>
<path d="M0 0 C3 1 3 1 3 1 Z " fill="#000000" transform="translate(455,480)"/>
<path d="M0 0 C3 1 3 1 3 1 Z " fill="#000000" transform="translate(43,480)"/>
<path d="M0 0 C3 1 3 1 3 1 Z " fill="#000000" transform="translate(40,479)"/>
<path d="M0 0 C3 1 3 1 3 1 Z " fill="#000000" transform="translate(460,478)"/>
<path d="" fill="#000000" transform="translate(0,0)"/>
<path d="" fill="#000000" transform="translate(0,0)"/>
<path d="" fill="#000000" transform="translate(0,0)"/>
<path d="" fill="#000000" transform="translate(0,0)"/>
<path d="" fill="#000000" transform="translate(0,0)"/>
<path d="M0 0 C3 1 3 1 3 1 Z " fill="#000000" transform="translate(132,359)"/>
<path d="M0 0 C3 1 3 1 3 1 Z " fill="#000000" transform="translate(129,358)"/>
<path d="M0 0 C3 1 3 1 3 1 Z " fill="#000000" transform="translate(170,357)"/>
<path d="M0 0 C3 1 3 1 3 1 Z " fill="#000000" transform="translate(173,356)"/>
<path d="M0 0 C3 1 3 1 3 1 Z " fill="#000000" transform="translate(176,355)"/>
<path d="M0 0 C3 1 3 1 3 1 Z " fill="#000000" transform="translate(181,353)"/>
<path d="M0 0 C3 1 3 1 3 1 Z " fill="#000000" transform="translate(314,275)"/>
<path d="M0 0 C3 1 3 1 3 1 Z " fill="#000000" transform="translate(321,272)"/>
<path d="M0 0 C3 1 3 1 3 1 Z " fill="#000000" transform="translate(324,271)"/>
<path d="M0 0 C3 1 3 1 3 1 Z " fill="#000000" transform="translate(329,269)"/>
<path d="M0 0 C3 1 3 1 3 1 Z " fill="#000000" transform="translate(332,268)"/>
<path d="M0 0 C3 1 3 1 3 1 Z " fill="#000000" transform="translate(336,267)"/>
<path d="M0 0 C3 1 3 1 3 1 Z " fill="#000000" transform="translate(339,266)"/>
<path d="" fill="#000000" transform="translate(0,0)"/>
<path d="" fill="#000000" transform="translate(0,0)"/>
<path d="" fill="#000000" transform="translate(0,0)"/>
<path d="" fill="#000000" transform="translate(0,0)"/>
<path d="M0 0 C3 1 3 1 3 1 Z " fill="#000000" transform="translate(342,41)"/>
<path d="M0 0 C2 1 2 1 2 1 Z " fill="#000000" transform="translate(458,479)"/>
<path d="M0 0 C2 1 2 1 2 1 Z " fill="#000000" transform="translate(38,478)"/>
<path d="M0 0 C2 1 2 1 2 1 Z " fill="#000000" transform="translate(463,477)"/>
<path d="M0 0 C2 1 2 1 2 1 Z " fill="#000000" transform="translate(36,477)"/>
<path d="M0 0 C2 1 2 1 2 1 Z " fill="#000000" transform="translate(34,476)"/>
<path d="M0 0 C2 1 2 1 2 1 Z " fill="#000000" transform="translate(32,475)"/>
<path d="M0 0 C2 1 2 1 2 1 Z " fill="#000000" transform="translate(468,474)"/>
<path d="M0 0 C2 1 2 1 2 1 Z " fill="#000000" transform="translate(29,473)"/>
<path d="M0 0 C2 1 2 1 2 1 Z " fill="#000000" transform="translate(471,472)"/>
<path d="M0 0 C2 1 2 1 2 1 Z " fill="#000000" transform="translate(26,471)"/>
<path d="" fill="#000000" transform="translate(0,0)"/>
<path d="" fill="#000000" transform="translate(0,0)"/>
<path d="" fill="#000000" transform="translate(0,0)"/>
<path d="" fill="#000000" transform="translate(0,0)"/>
<path d="" fill="#000000" transform="translate(0,0)"/>
<path d="M0 0 C2 1 2 1 2 1 Z " fill="#000000" transform="translate(127,357)"/>
<path d="M0 0 C2 1 2 1 2 1 Z " fill="#000000" transform="translate(125,356)"/>
<path d="M0 0 C2 1 2 1 2 1 Z " fill="#000000" transform="translate(179,354)"/>
<path d="M0 0 C2 1 2 1 2 1 Z " fill="#000000" transform="translate(122,354)"/>
<path d="M0 0 C2 1 2 1 2 1 Z " fill="#000000" transform="translate(184,352)"/>
<path d="M0 0 C2 1 2 1 2 1 Z " fill="#000000" transform="translate(186,351)"/>
<path d="M0 0 C2 1 2 1 2 1 Z " fill="#000000" transform="translate(188,350)"/>
<path d="M0 0 C2 1 2 1 2 1 Z " fill="#000000" transform="translate(190,349)"/>
<path d="M0 0 C2 1 2 1 2 1 Z " fill="#000000" transform="translate(192,348)"/>
<path d="M0 0 C2 1 2 1 2 1 Z " fill="#000000" transform="translate(194,347)"/>
<path d="M0 0 C2 1 2 1 2 1 Z " fill="#000000" transform="translate(196,346)"/>
<path d="M0 0 C2 1 2 1 2 1 Z " fill="#000000" transform="translate(198,345)"/>
<path d="M0 0 C2 1 2 1 2 1 Z " fill="#000000" transform="translate(201,343)"/>
<path d="M0 0 C2 1 2 1 2 1 Z " fill="#000000" transform="translate(203,342)"/>
<path d="M0 0 C2 1 2 1 2 1 Z " fill="#000000" transform="translate(205,341)"/>
<path d="M0 0 C2 1 2 1 2 1 Z " fill="#000000" transform="translate(208,339)"/>
<path d="M0 0 C2 1 2 1 2 1 Z " fill="#000000" transform="translate(211,337)"/>
<path d="M0 0 C2 1 2 1 2 1 Z " fill="#000000" transform="translate(213,336)"/>
<path d="M0 0 C2 1 2 1 2 1 Z " fill="#000000" transform="translate(216,334)"/>
<path d="M0 0 C2 1 2 1 2 1 Z " fill="#000000" transform="translate(218,333)"/>
<path d="M0 0 C2 1 2 1 2 1 Z " fill="#000000" transform="translate(221,331)"/>
<path d="M0 0 C2 1 2 1 2 1 Z " fill="#000000" transform="translate(224,329)"/>
<path d="M0 0 C2 1 2 1 2 1 Z " fill="#000000" transform="translate(227,327)"/>
<path d="M0 0 C2 1 2 1 2 1 Z " fill="#000000" transform="translate(230,325)"/>
<path d="M0 0 C2 1 2 1 2 1 Z " fill="#000000" transform="translate(233,323)"/>
<path d="M0 0 C2 1 2 1 2 1 Z " fill="#000000" transform="translate(236,321)"/>
<path d="M0 0 C2 1 2 1 2 1 Z " fill="#000000" transform="translate(239,319)"/>
<path d="M0 0 C2 1 2 1 2 1 Z " fill="#000000" transform="translate(241,318)"/>
<path d="M0 0 C2 1 2 1 2 1 Z " fill="#000000" transform="translate(244,316)"/>
<path d="M0 0 C2 1 2 1 2 1 Z " fill="#000000" transform="translate(247,314)"/>
<path d="M0 0 C2 1 2 1 2 1 Z " fill="#000000" transform="translate(250,312)"/>
<path d="M0 0 C2 1 2 1 2 1 Z " fill="#000000" transform="translate(255,309)"/>
<path d="M0 0 C2 1 2 1 2 1 Z " fill="#000000" transform="translate(258,307)"/>
<path d="M0 0 C2 1 2 1 2 1 Z " fill="#000000" transform="translate(261,305)"/>
<path d="M0 0 C2 1 2 1 2 1 Z " fill="#000000" transform="translate(263,304)"/>
<path d="M0 0 C2 1 2 1 2 1 Z " fill="#000000" transform="translate(266,302)"/>
<path d="M0 0 C2 1 2 1 2 1 Z " fill="#000000" transform="translate(269,300)"/>
<path d="M0 0 C2 1 2 1 2 1 Z " fill="#000000" transform="translate(271,299)"/>
<path d="M0 0 C2 1 2 1 2 1 Z " fill="#000000" transform="translate(274,297)"/>
<path d="M0 0 C2 1 2 1 2 1 Z " fill="#000000" transform="translate(276,296)"/>
<path d="M0 0 C2 1 2 1 2 1 Z " fill="#000000" transform="translate(279,294)"/>
<path d="M0 0 C2 1 2 1 2 1 Z " fill="#000000" transform="translate(281,293)"/>
<path d="M0 0 C2 1 2 1 2 1 Z " fill="#000000" transform="translate(284,291)"/>
<path d="M0 0 C2 1 2 1 2 1 Z " fill="#000000" transform="translate(286,290)"/>
<path d="M0 0 C2 1 2 1 2 1 Z " fill="#000000" transform="translate(288,289)"/>
<path d="M0 0 C2 1 2 1 2 1 Z " fill="#000000" transform="translate(291,287)"/>
<path d="M0 0 C2 1 2 1 2 1 Z " fill="#000000" transform="translate(293,286)"/>
<path d="M0 0 C2 1 2 1 2 1 Z " fill="#000000" transform="translate(295,285)"/>
<path d="M0 0 C2 1 2 1 2 1 Z " fill="#000000" transform="translate(298,283)"/>
<path d="M0 0 C2 1 2 1 2 1 Z " fill="#000000" transform="translate(300,282)"/>
<path d="M0 0 C2 1 2 1 2 1 Z " fill="#000000" transform="translate(302,281)"/>
<path d="M0 0 C2 1 2 1 2 1 Z " fill="#000000" transform="translate(304,280)"/>
<path d="M0 0 C2 1 2 1 2 1 Z " fill="#000000" transform="translate(306,279)"/>
<path d="M0 0 C2 1 2 1 2 1 Z " fill="#000000" transform="translate(308,278)"/>
<path d="M0 0 C2 1 2 1 2 1 Z " fill="#000000" transform="translate(310,277)"/>
<path d="M0 0 C2 1 2 1 2 1 Z " fill="#000000" transform="translate(312,276)"/>
<path d="M0 0 C2 1 2 1 2 1 Z " fill="#000000" transform="translate(317,274)"/>
<path d="M0 0 C2 1 2 1 2 1 Z " fill="#000000" transform="translate(319,273)"/>
<path d="M0 0 C2 1 2 1 2 1 Z " fill="#000000" transform="translate(327,270)"/>
<path d="" fill="#000000" transform="translate(0,0)"/>
<path d="" fill="#000000" transform="translate(0,0)"/>
<path d="" fill="#000000" transform="translate(0,0)"/>
<path d="" fill="#000000" transform="translate(0,0)"/>
<path d="" fill="#000000" transform="translate(0,0)"/>
<path d="" fill="#000000" transform="translate(0,0)"/>
<path d="M0 0 C2 1 2 1 2 1 Z " fill="#000000" transform="translate(345,40)"/>
<path d="M0 0 C2 1 2 1 2 1 Z " fill="#000000" transform="translate(153,40)"/>
<path d="M0 0 C2 1 2 1 2 1 Z " fill="#000000" transform="translate(347,39)"/>
<path d="M0 0 C2 1 2 1 2 1 Z " fill="#000000" transform="translate(151,39)"/>
<path d="M0 0 C2 1 2 1 2 1 Z " fill="#000000" transform="translate(350,37)"/>
<path d="M0 0 C2 1 2 1 2 1 Z " fill="#000000" transform="translate(150,1)"/>
<path d="M0 0 C2 1 2 1 2 1 Z " fill="#000000" transform="translate(347,0)"/>
<path d="" fill="#000000" transform="translate(0,0)"/>
<path d="" fill="#000000" transform="translate(0,0)"/>
<path d="" fill="#000000" transform="translate(0,0)"/>
<path d="" fill="#000000" transform="translate(0,0)"/>
<path d="" fill="#000000" transform="translate(0,0)"/>
<path d="" fill="#000000" transform="translate(0,0)"/>
<path d="" fill="#000000" transform="translate(0,0)"/>
<path d="" fill="#000000" transform="translate(0,0)"/>
<path d="" fill="#000000" transform="translate(0,0)"/>
<path d="" fill="#000000" transform="translate(0,0)"/>
<path d="" fill="#000000" transform="translate(0,0)"/>
<path d="" fill="#000000" transform="translate(0,0)"/>
<path d="" fill="#000000" transform="translate(0,0)"/>
<path d="" fill="#000000" transform="translate(0,0)"/>
<path d="" fill="#000000" transform="translate(0,0)"/>
<path d="" fill="#000000" transform="translate(0,0)"/>
<path d="" fill="#000000" transform="translate(0,0)"/>
<path d="" fill="#000000" transform="translate(0,0)"/>
<path d="" fill="#000000" transform="translate(0,0)"/>
<path d="" fill="#000000" transform="translate(0,0)"/>
<path d="" fill="#000000" transform="translate(0,0)"/>
<path d="" fill="#000000" transform="translate(0,0)"/>
<path d="" fill="#000000" transform="translate(0,0)"/>
<path d="" fill="#000000" transform="translate(0,0)"/>
<path d="" fill="#000000" transform="translate(0,0)"/>
<path d="" fill="#000000" transform="translate(0,0)"/>
<path d="" fill="#000000" transform="translate(0,0)"/>
<path d="" fill="#000000" transform="translate(0,0)"/>
<path d="" fill="#000000" transform="translate(0,0)"/>
<path d="" fill="#000000" transform="translate(0,0)"/>
<path d="" fill="#000000" transform="translate(0,0)"/>
<path d="" fill="#000000" transform="translate(0,0)"/>
<path d="" fill="#000000" transform="translate(0,0)"/>
<path d="" fill="#000000" transform="translate(0,0)"/>
<path d="" fill="#000000" transform="translate(0,0)"/>
<path d="" fill="#000000" transform="translate(0,0)"/>
<path d="" fill="#000000" transform="translate(0,0)"/>
<path d="" fill="#000000" transform="translate(0,0)"/>
<path d="" fill="#000000" transform="translate(0,0)"/>
<path d="" fill="#000000" transform="translate(0,0)"/>
<path d="" fill="#000000" transform="translate(0,0)"/>
<path d="" fill="#000000" transform="translate(0,0)"/>
<path d="" fill="#000000" transform="translate(0,0)"/>
<path d="" fill="#000000" transform="translate(0,0)"/>
<path d="" fill="#000000" transform="translate(0,0)"/>
<path d="" fill="#000000" transform="translate(0,0)"/>
<path d="" fill="#000000" transform="translate(0,0)"/>
<path d="" fill="#000000" transform="translate(0,0)"/>
<path d="" fill="#000000" transform="translate(0,0)"/>
<path d="" fill="#000000" transform="translate(0,0)"/>
<path d="" fill="#000000" transform="translate(0,0)"/>
<path d="" fill="#000000" transform="translate(0,0)"/>
<path d="" fill="#000000" transform="translate(0,0)"/>
<path d="" fill="#000000" transform="translate(0,0)"/>
<path d="" fill="#000000" transform="translate(0,0)"/>
<path d="" fill="#000000" transform="translate(0,0)"/>
<path d="" fill="#000000" transform="translate(0,0)"/>
<path d="" fill="#000000" transform="translate(0,0)"/>
<path d="" fill="#000000" transform="translate(0,0)"/>
<path d="" fill="#000000" transform="translate(0,0)"/>
<path d="" fill="#000000" transform="translate(0,0)"/>
<path d="" fill="#000000" transform="translate(0,0)"/>
<path d="" fill="#000000" transform="translate(0,0)"/>
<path d="" fill="#000000" transform="translate(0,0)"/>
<path d="" fill="#000000" transform="translate(0,0)"/>
<path d="" fill="#000000" transform="translate(0,0)"/>
<path d="" fill="#000000" transform="translate(0,0)"/>
<path d="" fill="#000000" transform="translate(0,0)"/>
<path d="" fill="#000000" transform="translate(0,0)"/>
<path d="" fill="#000000" transform="translate(0,0)"/>
<path d="" fill="#000000" transform="translate(0,0)"/>
<path d="" fill="#000000" transform="translate(0,0)"/>
<path d="" fill="#000000" transform="translate(0,0)"/>
<path d="" fill="#000000" transform="translate(0,0)"/>
<path d="" fill="#000000" transform="translate(0,0)"/>
<path d="" fill="#000000" transform="translate(0,0)"/>
<path d="" fill="#000000" transform="translate(0,0)"/>
<path d="" fill="#000000" transform="translate(0,0)"/>
<path d="" fill="#000000" transform="translate(0,0)"/>
<path d="" fill="#000000" transform="translate(0,0)"/>
<path d="" fill="#000000" transform="translate(0,0)"/>
<path d="" fill="#000000" transform="translate(0,0)"/>
<path d="" fill="#000000" transform="translate(0,0)"/>
<path d="" fill="#000000" transform="translate(0,0)"/>
<path d="" fill="#000000" transform="translate(0,0)"/>
<path d="" fill="#000000" transform="translate(0,0)"/>
<path d="" fill="#000000" transform="translate(0,0)"/>
<path d="" fill="#000000" transform="translate(0,0)"/>
<path d="" fill="#000000" transform="translate(0,0)"/>
<path d="" fill="#000000" transform="translate(0,0)"/>
<path d="" fill="#000000" transform="translate(0,0)"/>
<path d="" fill="#000000" transform="translate(0,0)"/>
<path d="" fill="#000000" transform="translate(0,0)"/>
</svg>
